{"title":"Machete Kills 2013 BLURAY XViD AC3","uid":9326333,"size":1830120559,"categoryP":"video","categoryS":"hd___movies","magnet":"?xt=urn:btih:84812e72bc40870e07ee6a436859d8cf4fd7643e&amp;dn=Machete+Kills+2013+BLURAY+XViD+AC3&amp;tr=udp%3A%2F%2Ftracker.openbittorrent.com%3A80&amp;tr=udp%3A%2F%2Fopen.demonii.com%3A1337&amp;tr=udp%3A%2F%2Ftracker.coppersurfer.tk%3A6969&amp;tr=udp%3A%2F%2Fexodus.desync.com%3A6969","seeders":0,"leechers":0,"uploader":"darkj6","files":11,"time":1386645202,"description":" ______   _______  ______    ___   _      ___  --------|\n|      | |   _   ||    _ |  |   | | |    |   ||   |----|    \n|  _    ||  |_|  ||   | ||  |   |_| |    |   ||   |___ \n| | |   ||       ||   |_||_ |      _|    |   ||    _  |\n| |_|   ||       ||    __  ||     |_  ___|   ||   | | |\n|       ||   _   ||   |  | ||    _  ||       ||   |_| |\n|______| |__| |__||___|  |_||___| |_||_______||_______|\n\n\nSOURCE                                   : RUSSIANS.THANKS LADZ\nComplete name                            : Machete Kills 2013 BLURAY XViD AC3 MURDER.mkv\nFormat                                   : Matroska\nFormat version                           : Version 4 / Version 2\nFile size                                : 1.70 GiB\nDuration                                 : 1h 47mn\nOverall bit rate                         : 2 256 Kbps\nEncoded date                             : UTC 2013-12-09 16:09:03\nWriting application                      : mkvmerge v6.3.0 ('You can't stop me!'wink.gif built on Jun 28 2013 20:09:41\nWriting library                          : libebml v1.3.0 + libmatroska v1.4.0\n\nVideo\nID                                       : 1\nFormat                                   : MPEG-4 Visual\nFormat profile                           : Advanced Simple@L5\nFormat settings, BVOP                    : Yes\nFormat settings, QPel                    : No\nFormat settings, GMC                     : No warppoints\nFormat settings, Matrix                  : Custom\nCodec ID                                 : V_MS/VFW/FOURCC / XVID\nCodec ID/Hint                            : XviD\nDuration                                 : 1h 47mn\nBit rate                                 : 1 891 Kbps\nWidth                                    : 720 pixels\nHeight                                   : 384 pixels\nDisplay aspect ratio                     : 1.85:1\nFrame rate mode                          : Constant\nFrame rate                               : 24.000 fps\nColor space                              : YUV\nChroma subsampling                       : 4:2:0\nBit depth                                : 8 bits\nScan type                                : Progressive\nCompression mode                         : Lossy\nBits/(Pixel*Frame)                       : 0.285\nStream size                              : 1.43 GiB (84%)\nWriting library                          : XviD \nDefault                                  : Yes\nForced                                   : No\n\nAudio\nID                                       : 2\nFormat                                   : AC-3\nFormat/Info                              : Audio Coding 3\nMode extension                           : CM (complete main)\nFormat settings, Endianness              : Big\nCodec ID                                 : A_AC3\nDuration                                 : 1h 47mn\nBit rate mode                            : Constant\nBit rate                                 : 320 Kbps\nChannel count                            : 2 channels\nChannel positions                        : Front: L R\nSampling rate                            : 48.0 KHz\nBit depth                                : 16 bits\nCompression mode                         : Lossy\nStream size                              : 247 MiB (14%)\nDefault                                  : Yes\nForced                                   : No\n\n\n &lt;a href=&quot;\nhttp://i.imgur.com/LxZLCpb.png&quot; rel=&quot;nofollow&quot; target=&quot;_NEW&quot;&gt;\nhttp://i.imgur.com/LxZLCpb.png&lt;/a&gt;\n &lt;a href=&quot;\nhttp://i.imgur.com/2j4jROd.png&quot; rel=&quot;nofollow&quot; target=&quot;_NEW&quot;&gt;\nhttp://i.imgur.com/2j4jROd.png&lt;/a&gt;\n &lt;a href=&quot;\nhttp://i.imgur.com/eUxY5qE.png&quot; rel=&quot;nofollow&quot; target=&quot;_NEW&quot;&gt;\nhttp://i.imgur.com/eUxY5qE.png&lt;/a&gt;\n &lt;a href=&quot;\nhttp://i.imgur.com/Se2B05z.png&quot; rel=&quot;nofollow&quot; target=&quot;_NEW&quot;&gt;\nhttp://i.imgur.com/Se2B05z.png&lt;/a&gt;\n &lt;a href=&quot;\nhttp://i.imgur.com/TnKS6qo.png&quot; rel=&quot;nofollow&quot; target=&quot;_NEW&quot;&gt;\nhttp://i.imgur.com/TnKS6qo.png&lt;/a&gt;\n &lt;a href=&quot;\nhttp://i.imgur.com/SU5PiqA.png&quot; rel=&quot;nofollow&quot; target=&quot;_NEW&quot;&gt;\nhttp://i.imgur.com/SU5PiqA.png&lt;/a&gt;\n &lt;a href=&quot;\nhttp://i.imgur.com/hB4nnvH.png&quot; rel=&quot;nofollow&quot; target=&quot;_NEW&quot;&gt;\nhttp://i.imgur.com/hB4nnvH.png&lt;/a&gt;\n &lt;a href=&quot;\nhttp://i.imgur.com/cx83obp.png&quot; rel=&quot;nofollow&quot; target=&quot;_NEW&quot;&gt;\nhttp://i.imgur.com/cx83obp.png&lt;/a&gt;\n &lt;a href=&quot;\nhttp://i.imgur.com/2EsN7MI.jpg&quot; rel=&quot;nofollow&quot; target=&quot;_NEW&quot;&gt;\nhttp://i.imgur.com/2EsN7MI.jpg&lt;/a&gt;","torrent":{"xt":"urn:btih:84812e72bc40870e07ee6a436859d8cf4fd7643e","amp;dn":"Machete+Kills+2013+BLURAY+XViD+AC3","amp;tr":["udp%3A%2F%2Ftracker.openbittorrent.com%3A80","udp%3A%2F%2Fopen.demonii.com%3A1337","udp%3A%2F%2Ftracker.coppersurfer.tk%3A6969","udp%3A%2F%2Fexodus.desync.com%3A6969"],"infoHash":"84812e72bc40870e07ee6a436859d8cf4fd7643e","infoHashBuffer":{"type":"Buffer","data":[132,129,46,114,188,64,135,14,7,238,106,67,104,89,216,207,79,215,100,62]},"announce":[],"urlList":[]}}